<svg width="81" height="81" viewBox="0 0 81 81" fill="none" xmlns="http://www.w3.org/2000/svg">
<g clip-path="url(#clip0_542_58)">
<path d="M24.4436 43.9037C24.4436 49.2156 24.4436 54.487 24.4436 59.7473C24.3529 59.7751 24.3153 59.7967 24.2777 59.7967C22.2672 59.7986 20.2568 59.793 18.2464 59.8044C17.8872 59.8065 17.9477 59.5818 17.9476 59.3728C17.9467 56.6067 17.9466 53.8406 17.9467 51.0745C17.9468 48.0251 17.9458 44.9756 17.9482 41.9262C17.9496 40.0735 19.161 38.8857 21.0131 38.8566C21.9628 38.8417 22.8416 38.9648 23.5544 39.6603C24.1329 40.2248 24.4366 40.9078 24.4416 41.7178C24.4459 42.4329 24.4432 43.148 24.4436 43.9037Z" fill="#FDFEFE"/>
<path d="M58.44 54.1101C58.44 55.6459 58.44 57.1411 58.44 58.6657C57.4137 58.6657 56.424 58.6657 55.4131 58.6657C55.4131 53.6774 55.4131 48.7054 55.4131 43.6858C55.5942 43.6858 55.7526 43.6858 55.9109 43.6858C56.9367 43.6859 57.9626 43.676 58.9879 43.6973C59.1376 43.7004 59.3516 43.8149 59.4223 43.9414C61.118 46.9741 62.7979 50.0157 64.4814 53.0552C64.5954 53.2609 64.7152 53.4634 64.9055 53.6464C64.9055 50.3501 64.9055 47.0538 64.9055 43.7217C65.9184 43.7217 66.892 43.7217 67.8915 43.7217C67.8915 48.6963 67.8915 53.6693 67.8915 58.6939C67.3615 58.6939 66.8404 58.6939 66.3193 58.6939C65.8739 58.6939 65.4221 58.6466 64.9847 58.7057C64.4343 58.7802 64.1833 58.5299 63.936 58.0785C62.2277 54.9609 60.4919 51.8584 58.7641 48.7515C58.6884 48.6154 58.6046 48.4838 58.4401 48.3607C58.4401 50.2637 58.4401 52.1666 58.44 54.1101Z" fill="#FCFCFD"/>
<path d="M10.013 28.1564C9.68742 28.3264 9.38386 28.4733 9.08929 28.6365C8.89041 28.7466 8.7574 28.7402 8.6216 28.5271C7.87601 27.3568 7.11875 26.1939 6.3633 25.0299C6.19308 24.7677 6.36805 24.6644 6.56685 24.5786C7.49455 24.1786 8.41742 23.7663 9.35397 23.3879C11.7324 22.4271 14.2104 21.8632 16.7587 21.6173C19.1916 21.3824 21.6289 21.3481 24.0701 21.5101C26.7192 21.6859 29.3276 22.0715 31.7781 23.1384C33.0346 23.6855 34.231 24.3702 35.4563 24.9895C35.682 25.1036 35.6978 25.2671 35.5731 25.4534C34.8689 26.506 34.1605 27.5557 33.4516 28.605C33.3007 28.8283 33.13 28.7991 32.8967 28.6955C31.4096 28.0354 29.9405 27.3214 28.4136 26.7682C26.6072 26.1138 24.7005 25.8662 22.7877 25.7047C20.1792 25.4844 17.5892 25.538 15.0348 26.1836C13.3794 26.602 11.8263 27.283 10.2963 28.0237C10.2115 28.0647 10.1246 28.1015 10.013 28.1564Z" fill="#FCFDFD"/>
<path d="M33.1305 56.1427C34.7893 56.9466 36.9146 56.3704 37.7178 54.928C38.116 54.2131 38.0166 53.4455 38.012 52.6311C36.8366 52.6311 35.6846 52.6311 34.5103 52.6311C34.5103 51.8448 34.5103 51.1103 34.5103 50.35C36.6936 50.35 38.8597 50.35 41.0561 50.35C41.0561 53.1196 41.0561 55.8773 41.0561 58.6891C40.3466 58.6891 39.636 58.6967 38.9261 58.6781C38.8488 58.6761 38.7459 58.5348 38.7056 58.4372C38.5676 58.1028 38.4522 57.7591 38.3173 57.3892C38.2521 57.4197 38.199 57.4297 38.1674 57.4614C36.8405 58.7941 35.1784 59.1105 33.3976 58.9812C31.6676 58.8555 30.2144 58.1281 29.0761 56.8024C28.2835 55.8793 27.8204 54.798 27.5919 53.6167C27.2338 51.7652 27.2301 49.919 27.7629 48.0933C28.3343 46.1354 29.5358 44.7037 31.444 43.9723C33.7462 43.0899 36.0557 43.1037 38.2987 44.2233C39.7009 44.9232 40.6423 46.2009 41.0734 47.9485C40.9887 47.9683 40.9044 48.0048 40.8199 48.0051C39.8348 48.0089 38.8496 48.0167 37.8649 47.9956C37.7359 47.9928 37.5351 47.861 37.4944 47.7447C37.0753 46.5463 36.2187 45.9563 34.9796 45.8649C33.5683 45.7607 32.4296 46.2694 31.7772 47.5286C31.4268 48.205 31.222 48.9931 31.1186 49.7536C30.9231 51.1897 30.9612 52.6359 31.4307 54.0327C31.7318 54.9287 32.2499 55.6663 33.1305 56.1427Z" fill="#FBFCFD"/>
<path d="M43.4509 43.6933C46.8037 43.6875 50.119 43.6875 53.4501 43.6875C53.4501 44.5749 53.4501 45.4081 53.4501 46.2922C51.2623 46.2922 49.0847 46.2922 46.8847 46.2922C46.8847 47.5116 46.8847 48.6807 46.8847 49.9008C48.8588 49.9008 50.8339 49.9008 52.8394 49.9008C52.8394 50.7377 52.8394 51.5243 52.8394 52.3629C52.6907 52.3629 52.5467 52.3629 52.4026 52.3629C50.6889 52.3628 48.9751 52.3711 47.2615 52.3551C46.9377 52.3521 46.8487 52.4439 46.8553 52.765C46.8758 53.7631 46.862 54.7619 46.8636 55.7604C46.8638 55.8781 46.8775 55.9957 46.8874 56.1533C49.0775 56.1533 51.2435 56.1533 53.4374 56.1533C53.4374 57.0107 53.4374 57.8259 53.4374 58.6684C50.0854 58.6684 46.7316 58.6684 43.322 58.6684C43.322 58.5194 43.322 58.3773 43.322 58.2353C43.3218 53.5394 43.3208 48.8436 43.3254 44.1477C43.3256 43.9981 43.3828 43.8486 43.4509 43.6933Z" fill="#FAFBFC"/>
<path d="M11.1191 33.1855C11.047 33.0686 10.9895 32.9775 10.9341 32.8852C10.7154 32.5203 10.7789 32.3399 11.1806 32.1912C13.1531 31.4609 15.142 30.7861 17.2404 30.5145C19.1328 30.2695 21.0309 30.2745 22.93 30.4285C25.605 30.6454 28.1202 31.4677 30.5966 32.4443C30.9489 32.5832 31.007 32.7157 30.8133 33.057C30.2089 34.1225 29.6297 35.2029 29.0662 36.2908C28.9089 36.5943 28.7562 36.6165 28.4656 36.489C26.9706 35.8334 25.4441 35.2858 23.8087 35.0776C22.0304 34.8513 20.2598 34.9178 18.4887 35.1265C16.7306 35.3336 15.0336 35.7939 13.3616 36.3627C13.2711 36.3935 13.0715 36.2841 13.0078 36.1851C12.3731 35.2003 11.7564 34.2039 11.1191 33.1855Z" fill="#FDFDFD"/>
<path d="M68.8282 36.9217C68.76 37.3687 68.7264 37.7876 68.6214 38.1878C68.0882 40.2187 66.1521 40.8781 64.6282 40.7166C63.2945 40.5754 62.1657 40.0607 61.6226 38.7402C61.0308 37.3014 61.059 35.8404 61.7465 34.4396C62.3706 33.1677 63.9842 32.4721 65.5332 32.6701C67.5441 32.9271 68.6879 34.2325 68.7805 36.2008C68.7912 36.4292 68.8132 36.657 68.8282 36.9217ZM64.0566 34.1952C63.6487 34.4684 63.3742 34.8407 63.2461 35.3141C62.9986 36.2286 62.9804 37.1513 63.2479 38.0594C63.5165 38.9714 64.1754 39.4564 65.0465 39.451C65.897 39.4456 66.5628 38.9214 66.8226 38.0226C67.0631 37.1908 67.067 36.3412 66.8627 35.5073C66.5264 34.1337 65.2853 33.5451 64.0566 34.1952Z" fill="#FBFCFC"/>
<path d="M49.42 39.4722C49.7372 39.4451 50.0204 39.4319 50.2955 39.3781C50.657 39.3075 50.9 39.093 50.9486 38.7083C51.0019 38.286 50.843 37.9366 50.4571 37.7809C49.9372 37.571 49.3869 37.4372 48.8525 37.2621C48.4329 37.1246 47.9994 37.0118 47.6042 36.8213C46.6945 36.3828 46.3297 35.667 46.4143 34.6035C46.4759 33.8292 47.0499 33.1632 47.9138 32.89C48.9435 32.5644 49.9827 32.5382 51.0066 32.8963C51.8883 33.2047 52.4195 33.8328 52.584 34.7975C52.0155 34.7975 51.4718 34.7975 50.9258 34.7975C50.6054 33.9537 49.2194 33.5629 48.4875 34.1148C48.0429 34.4501 48.1056 35.1316 48.6462 35.373C49.0826 35.5678 49.5675 35.6509 50.022 35.8092C50.5523 35.9939 51.0901 36.171 51.5936 36.4153C52.3767 36.795 52.784 37.4665 52.7866 38.3289C52.7892 39.2222 52.3759 39.9392 51.5612 40.3084C50.2376 40.9082 48.8691 40.9313 47.5415 40.3122C46.723 39.9305 46.2615 39.2362 46.1191 38.3241C46.6919 38.3241 47.2555 38.3241 47.8234 38.3241C48.0446 39.1246 48.6033 39.4489 49.42 39.4722Z" fill="#FAFBFC"/>
<path d="M38.2731 32.672C39.4636 32.596 40.5423 32.7756 41.4031 33.6359C41.8543 34.0869 42.1039 34.6413 42.2195 35.2997C41.6236 35.2997 41.0522 35.2997 40.4377 35.2997C40.4124 35.2346 40.3723 35.1399 40.3388 35.0429C40.0865 34.3125 39.6698 33.9703 38.9755 33.9253C38.1897 33.8744 37.6083 34.1714 37.3175 34.8778C36.8305 36.0608 36.8569 37.2817 37.298 38.4635C37.5958 39.2612 38.3421 39.5942 39.1744 39.4363C39.9237 39.2941 40.355 38.7281 40.4387 37.7326C40.74 37.7326 41.0464 37.7326 41.3528 37.7326C41.6482 37.7326 41.9436 37.7326 42.2389 37.7326C42.2183 39.1347 41.2565 40.2882 39.9042 40.5958C39.1817 40.7602 38.4594 40.8116 37.7433 40.6298C36.5438 40.3251 35.7265 39.5712 35.3519 38.3903C35.0236 37.3556 35.0053 36.2862 35.2726 35.2412C35.6615 33.7213 36.6781 32.8729 38.2731 32.672Z" fill="#FBFCFC"/>
<path d="M53.6126 35.2366C54.1576 33.1215 56.1048 32.3265 58.1004 32.7648C59.4897 33.0699 60.2354 33.8608 60.5599 35.305C59.9709 35.305 59.3871 35.305 58.7707 35.305C58.7435 35.2321 58.7062 35.1373 58.6725 35.0413C58.4095 34.2905 57.9745 33.9454 57.2656 33.9262C56.4562 33.9042 55.8443 34.2628 55.589 34.9917C55.1938 36.1203 55.2088 37.2723 55.5962 38.3969C55.8683 39.1867 56.5746 39.5549 57.4341 39.4481C58.1599 39.3579 58.612 38.8612 58.7365 38.0203C58.7481 37.9415 58.7729 37.8647 58.7974 37.7627C59.3881 37.7627 59.9736 37.7627 60.5594 37.7627C60.5716 38.8441 59.8895 39.912 58.9859 40.3334C57.9704 40.8069 56.9064 40.8841 55.8372 40.565C54.4701 40.1571 53.5477 38.8868 53.4774 37.2759C53.4484 36.6102 53.559 35.9383 53.6126 35.2366Z" fill="#FBFCFD"/>
<path d="M45.1255 39.6865C45.1255 39.9947 45.1255 40.2625 45.1255 40.5545C44.5337 40.5545 43.9605 40.5545 43.3589 40.5545C43.3589 37.9895 43.3589 35.4135 43.3589 32.8203C43.9371 32.8203 44.5101 32.8203 45.1255 32.8203C45.1255 35.1019 45.1255 37.3741 45.1255 39.6865Z" fill="#FEFFFE"/>
<path d="M58.9612 24.2208C58.9613 23.4799 58.9588 22.7794 58.9624 22.079C58.9645 21.663 59.2183 21.3812 59.5744 21.3868C59.9358 21.3924 60.1807 21.6676 60.1812 22.0901C60.1838 24.2721 60.1837 26.4542 60.1813 28.6363C60.1809 29.0511 59.9273 29.3253 59.5649 29.3222C59.2013 29.3191 58.9632 29.049 58.9625 28.6254C58.9603 27.1707 58.9614 25.716 58.9612 24.2208Z" fill="#FDFEFE"/>
<path d="M45.0367 24.2995C45.0366 23.545 45.0339 22.831 45.0376 22.1169C45.04 21.6643 45.2831 21.3853 45.6615 21.3867C46.0151 21.3881 46.2696 21.6646 46.2706 22.088C46.2755 24.2705 46.2756 26.4531 46.2706 28.6356C46.2697 29.0534 46.0083 29.3254 45.6505 29.32C45.2829 29.3146 45.0395 29.0477 45.0383 28.6242C45.0344 27.1962 45.0367 25.7681 45.0367 24.2995Z" fill="#FDFEFE"/>
<path d="M62.3998 26.4828C62.4002 25.8103 62.3941 25.178 62.4032 24.546C62.4106 24.0348 62.6646 23.7435 63.0619 23.7626C63.456 23.7816 63.6677 24.0552 63.6682 24.5514C63.6692 25.4795 63.6707 26.4077 63.6677 27.3358C63.6663 27.7752 63.4503 28.0292 63.0771 28.046C62.6753 28.064 62.4482 27.8607 62.4109 27.4101C62.3865 27.1161 62.4021 26.8188 62.3998 26.4828Z" fill="#F7F8F9"/>
<path d="M42.8167 25.5111C42.8168 26.1315 42.8242 26.7117 42.8149 27.2917C42.8067 27.8038 42.5897 28.0489 42.1737 28.0472C41.7775 28.0456 41.5522 27.7693 41.5517 27.2789C41.5507 26.3616 41.5502 25.4442 41.5519 24.5269C41.5528 24.0468 41.7937 23.7593 42.1867 23.7617C42.5612 23.764 42.7998 24.0363 42.8147 24.4995C42.825 24.8229 42.8167 25.1469 42.8167 25.5111Z" fill="#F7F8F9"/>
<path d="M48.5946 24.0876C48.8051 23.7727 49.079 23.7142 49.3853 23.8254C49.681 23.9327 49.7469 24.1792 49.7444 24.4734C49.7362 25.4414 49.7437 26.4096 49.7407 27.3777C49.7393 27.8344 49.5385 28.0512 49.1329 28.05C48.7481 28.0489 48.5203 27.8056 48.5181 27.3697C48.5134 26.4016 48.5146 25.4334 48.5196 24.4654C48.5202 24.3495 48.5599 24.2339 48.5946 24.0876Z" fill="#FCFDFE"/>
<path d="M55.4792 25.8361C55.4793 25.3239 55.473 24.8521 55.4815 24.3806C55.4882 24.0073 55.7336 23.7632 56.0809 23.7617C56.4219 23.7603 56.6958 24.0105 56.6991 24.3687C56.7086 25.3928 56.7081 26.4172 56.6998 27.4413C56.6968 27.8136 56.4483 28.0452 56.0922 28.0474C55.7066 28.0497 55.4862 27.8279 55.4809 27.4129C55.4743 26.9009 55.4793 26.3887 55.4792 25.8361Z" fill="#FCFDFD"/>
<path d="M51.9985 26.8862C51.9988 26.5918 51.9902 26.3365 52.0014 26.082C52.0162 25.744 52.2615 25.5139 52.5938 25.5079C52.9486 25.5016 53.2114 25.733 53.2199 26.0879C53.2311 26.5573 53.2321 27.0275 53.218 27.4968C53.2081 27.8301 52.9496 28.0481 52.608 28.0457C52.2676 28.0433 52.0218 27.8228 52.0023 27.4891C51.9913 27.3019 51.9992 27.1135 51.9985 26.8862Z" fill="#FBFCFD"/>
<path d="M38.0695 27.3455C38.0695 26.9325 38.0612 26.556 38.0717 26.1799C38.0834 25.7602 38.3297 25.5141 38.7135 25.5156C39.1098 25.5172 39.3059 25.7352 39.3145 26.1999C39.3214 26.5761 39.3211 26.9526 39.3159 27.3289C39.3093 27.81 39.1307 28.0323 38.7482 28.051C38.353 28.0703 38.146 27.8662 38.0695 27.3455Z" fill="#FCFDFE"/>
<path d="M67.1473 27.0453C67.1416 27.2443 67.1666 27.4136 67.1241 27.5639C67.031 27.8934 66.8153 28.0857 66.4457 28.0481C66.0939 28.0123 65.9136 27.8098 65.9052 27.4672C65.8943 27.0245 65.894 26.5811 65.9059 26.1385C65.9168 25.7365 66.1245 25.5254 66.4857 25.5159C66.8553 25.5062 67.1178 25.7361 67.142 26.1213C67.1605 26.4155 67.1467 26.7117 67.1473 27.0453Z" fill="#FCFDFE"/>
</g>
<defs>
<clipPath id="clip0_542_58">
<rect width="81" height="81" fill="white"/>
</clipPath>
</defs>
</svg>
